<svg width="22" height="22" viewBox="0 0 22 22" fill="none" xmlns="http://www.w3.org/2000/svg">
<path d="M1.51868 0.292895C1.9092 -0.0976291 2.54237 -0.0976295 2.93289 0.292895L20.8787 18.2387C21.2692 18.6292 21.2692 19.2624 20.8787 19.6529L19.6529 20.8787C19.2624 21.2692 18.6292 21.2692 18.2387 20.8787L0.292893 2.93289C-0.0976311 2.54237 -0.0976309 1.90921 0.292893 1.51868L1.51868 0.292895Z" fill="#111111"/>
<path d="M0.292902 19.6529C-0.0976221 19.2624 -0.0976225 18.6292 0.292902 18.2387L18.2387 0.292893C18.6292 -0.0976309 19.2624 -0.0976312 19.6529 0.292893L20.8787 1.51868C21.2692 1.9092 21.2692 2.54237 20.8787 2.93289L2.9329 20.8787C2.54238 21.2692 1.90921 21.2692 1.51869 20.8787L0.292902 19.6529Z" fill="#111111"/>
</svg>
