<svg width="22" height="20" viewBox="0 0 22 20" fill="none" xmlns="http://www.w3.org/2000/svg">
<path d="M0 1C0 0.447715 0.447715 0 1 0H21C21.5523 0 22 0.447715 22 1V2C22 2.55228 21.5523 3 21 3H1C0.447716 3 0 2.55228 0 2V1Z" fill="#191F28"/>
<path d="M0 9.5C0 8.94772 0.447715 8.5 1 8.5H21C21.5523 8.5 22 8.94772 22 9.5V10.5C22 11.0523 21.5523 11.5 21 11.5H1C0.447716 11.5 0 11.0523 0 10.5V9.5Z" fill="#191F28"/>
<path d="M0 18C0 17.4477 0.447715 17 1 17H21C21.5523 17 22 17.4477 22 18V19C22 19.5523 21.5523 20 21 20H1C0.447716 20 0 19.5523 0 19V18Z" fill="#191F28"/>
</svg>
